<?xml version="1.0" encoding="UTF-8"?>
<svg id="Livello_2" data-name="Livello 2" xmlns="http://www.w3.org/2000/svg" xmlns:xlink="http://www.w3.org/1999/xlink" viewBox="0 0 199.17 94.42" role="img" aria-label="Open Innova">
  <defs>
    <style>
      .cls-1 {
        stroke: url(#Sfumatura_senza_nome_82);
      }

      .cls-1, .cls-2 {
        fill: none;
        stroke-miterlimit: 10;
        stroke-width: 5px;
      }

      .cls-3 {
        fill: currentColor;
      }

      .cls-2 {
        stroke: url(#Sfumatura_senza_nome_82-2);
      }

      .cls-4 {
        fill: url(#Sfumatura_senza_nome_177);
      }
    </style>
    <linearGradient id="Sfumatura_senza_nome_177" data-name="Sfumatura senza nome 177" x1="1561.75" y1="-108.14" x2="1556.95" y2="-108.14" gradientTransform="translate(-1362.58 155.87)" gradientUnits="userSpaceOnUse">
      <stop offset="0" stop-color="currentColor" stop-opacity=".25"/>
      <stop offset="1" stop-color="currentColor"/>
    </linearGradient>
    <linearGradient id="Sfumatura_senza_nome_82" data-name="Sfumatura senza nome 82" x1="7.51" y1="74.13" x2="97.57" y2="74.13" gradientUnits="userSpaceOnUse">
      <stop offset="0" stop-color="#64ba84"/>
      <stop offset="1" stop-color="#64ba84" stop-opacity="0"/>
    </linearGradient>
    <linearGradient id="Sfumatura_senza_nome_82-2" data-name="Sfumatura senza nome 82" x1="96.7" y1="19.68" x2="6.13" y2="19.68" xlink:href="#Sfumatura_senza_nome_82"/>
  </defs>
  <g id="Livello_1-2" data-name="Livello 1">
    <g>
      <rect class="cls-3" x="189.57" y="45.99" width="4.8" height="3.46"/>
      <rect class="cls-4" x="194.37" y="45.99" width="4.8" height="3.46"/>
      <g>
        <path class="cls-3" d="M157.84,51.49c-1.96,4.92-7.4,6.97-12.3,5.45-3.01-.94-5.27-3.27-6.19-6.28-.67-2.21-.67-4.57,0-6.78.91-2.99,3.17-5.31,6.16-6.24,4.82-1.5,10.26.45,12.28,5.27,1.14,2.72,1.14,5.85.05,8.59ZM148.83,53.08c1.96-.01,3.6-1.11,4.37-2.89,1.2-2.79.63-6.86-2.29-8.24-1.45-.68-3.16-.64-4.57.12-2.58,1.41-3.12,4.92-2.26,7.59.4,1.22,1.19,2.23,2.3,2.85.75.42,1.54.57,2.44.57Z"/>
        <g>
          <path class="cls-3" d="M109.5,41.75c-1.92-.55-4.11-.01-5.02,1.79-.3.6-.4,1.2-.44,1.89v11.4s-4.8,0-4.8,0v-19.12s4.79,0,4.79,0l.03,2.6c.83-1.28,1.84-2.19,3.21-2.69,1.72-.63,3.6-.65,5.33-.05,1.93.67,3.33,2.17,3.92,4.1.27.88.37,1.72.4,2.67v12.5s-4.8,0-4.8,0v-11.21c.03-1.79-.85-3.37-2.62-3.88Z"/>
          <path class="cls-3" d="M132.07,43.64c-.88-1.9-3.11-2.43-5.02-1.9-1.77.49-2.67,2.02-2.67,3.85v11.25s-4.78,0-4.78,0v-19.12s4.77,0,4.77,0l.03,2.62c1.05-1.69,2.57-2.73,4.46-3.06,1.43-.25,2.85-.17,4.21.33,2.81,1.05,4.12,3.58,4.19,6.53v12.69s-4.78,0-4.78,0v-11.27c-.03-.7-.13-1.31-.41-1.92Z"/>
          <polygon class="cls-3" points="173 37.72 177.96 37.73 170.2 56.84 165.49 56.84 157.72 37.73 162.69 37.72 167.85 50.74 173 37.72"/>
          <g id="zgfUxJ.tif">
            <g>
              <path class="cls-3" d="M194.37,49.45h-4.78c0,.56-.01,1.09-.16,1.63-.52,1.83-2.11,2.43-3.9,2.48-1.07.03-2.37-.16-2.91-1.13-.32-.58-.31-1.29.01-1.87.46-.81,1.57-1.09,2.5-1.11h4.46s0-3.46,0-3.46h-4.87c-1.98.05-4.06.57-5.53,1.93-.81.75-1.36,1.7-1.56,2.79-.22,1.2-.07,2.43.46,3.52.3.62.7,1.13,1.21,1.59,1.75,1.58,4.31,1.91,6.55,1.34.7-.18,1.34-.46,1.94-.86.76-.5,1.29-1.14,1.78-1.95l.02,2.48h4.78s0-7.39,0-7.39Z"/>
              <path class="cls-3" d="M194.37,49.45v7.39s-4.78,0-4.78,0l-.02-2.48c-.49.82-1.03,1.46-1.78,1.95-.6.39-1.23.68-1.94.86-2.24.57-4.8.24-6.55-1.34-.51-.46-.91-.97-1.21-1.59-.53-1.09-.68-2.32-.46-3.52.2-1.09.75-2.04,1.56-2.79,1.47-1.36,3.55-1.88,5.53-1.93h4.87s0,3.45,0,3.45h-4.46c-.93.02-2.03.3-2.5,1.11-.33.57-.33,1.29-.01,1.87.54.97,1.84,1.16,2.91,1.13,1.79-.05,3.39-.65,3.9-2.48.15-.53.17-1.07.16-1.63h4.78Z"/>
              <path class="cls-3" d="M188.88,42.11c-1.06-.85-2.78-.87-4.05-.56-1.03.3-1.82.94-1.82,2.1h-4.79c0-3.49,2.06-5.58,5.39-6.25,2.9-.58,6.69-.27,8.99,1.73,1.06.94,1.68,2.24,1.74,3.67l.02,3.19h-4.78s0-2.44,0-2.44c0-.57-.26-1.08-.7-1.45Z"/>
            </g>
          </g>
        </g>
      </g>
      <rect class="cls-3" x="189.57" y="45.99" width="4.8" height="3.46"/>
      <rect class="cls-4" x="194.37" y="45.99" width="4.8" height="3.46"/>
      <path class="cls-1" d="M95.1,54.23c-3.36,21.36-21.79,37.69-44.03,37.69-18.63,0-34.59-11.47-41.25-27.75"/>
      <path class="cls-2" d="M8.59,38.89C12.49,18.17,30.66,2.5,52.5,2.5c19.16,0,35.5,12.06,41.85,29.01"/>
      <g>
        <path class="cls-3" d="M30.65,57.42c-2.37-.02-4.45-.98-6.1-2.76v9.53s-4.8,0-4.8,0v-26.47s4.79,0,4.79,0l.02,2.21c1.55-1.76,3.62-2.71,5.93-2.78,4.32-.13,7.6,2.8,8.63,6.89.92,3.68.28,8.09-2.41,10.89-1.59,1.63-3.72,2.53-6.06,2.49ZM31.9,52.54c2.57-1.31,3.19-4.71,2.48-7.33-.68-2.51-2.81-3.98-5.43-3.69-1.72.19-3.12,1.26-3.82,2.82-1.25,2.79-.57,7.07,2.42,8.33,1.39.58,2.97.57,4.35-.13Z"/>
        <path class="cls-3" d="M75.26,43.48c-.98-1.84-3.25-2.28-5.13-1.67-1.71.55-2.49,2.11-2.49,3.89v11.15s-4.78,0-4.78,0v-19.12s4.77,0,4.77,0l.04,2.61c.83-1.26,1.8-2.17,3.15-2.68,1.63-.62,3.41-.67,5.08-.18,3.05.89,4.57,3.58,4.63,6.69v12.68s-4.78,0-4.78,0v-11.34c-.03-.74-.15-1.4-.48-2.02Z"/>
        <path class="cls-3" d="M52.5,52.84c-1.02.3-2.07.32-3.11.08-2.01-.55-3.11-2.08-3.5-4.12h14.49s0-1.7,0-1.7c0-4.26-2.36-8.1-6.49-9.44-1.98-.64-4.06-.68-6.07-.14-3.63,1.02-6.06,3.89-6.75,7.61-.22,1.21-.26,2.45-.07,3.67h0s0,0,0,0h0c.14,1.08.39,2.01.79,2.95.99,2.31,2.81,4.06,5.17,4.98,2.4.9,5.05.93,7.49.12,2.83-.94,4.9-3.17,5.46-6.15h-5.08c-.4,1.14-1.27,1.82-2.33,2.15ZM50.96,41.49c2.17.12,3.72,1.53,4.26,3.63h-9.18c.64-2.36,2.49-3.76,4.92-3.63Z"/>
      </g>
      <circle class="cls-3" cx="94.31" cy="31.33" r="2.55"/>
      <path class="cls-3" d="M92.12,56.84v-14.73l-4.23,1.99v-4.54l4.15-2.23h4.82v19.51h-4.74Z"/>
      <circle class="cls-3" cx="9.83" cy="64.19" r="2.55"/>
      <path class="cls-3" d="M16.95,44.64c-.35-1.96-1.16-3.69-2.34-4.98-1.08-1.18-2.47-2-4.03-2.35-1.29-.3-2.61-.3-3.91-.02-1.68.37-3.16,1.26-4.28,2.58-1.14,1.34-1.9,3.1-2.21,5.1-.23,1.51-.23,3.05,0,4.57.37,2.4,1.35,4.4,2.85,5.81,1.01.95,2.27,1.61,3.64,1.92.63.14,1.28.21,1.92.21s1.28-.07,1.92-.21c1.39-.3,2.61-.95,3.65-1.92,1.44-1.35,2.44-3.34,2.82-5.62.28-1.7.27-3.41-.03-5.09ZM12.14,49.2c-.25,1.37-.84,2.51-1.66,3.2-1.1.93-2.7.93-3.8,0-1.72-1.46-2.08-4.54-1.68-6.93.16-.94.55-2.26,1.53-3.18.58-.55,1.32-.82,2.05-.82s1.45.27,2.03.81c1.64,1.53,1.95,4.58,1.52,6.93Z"/>
    </g>
  </g>
</svg>
